<?xml version="1.0" encoding="utf-8"?>
<!-- Generator: Adobe Illustrator 23.0.1, SVG Export Plug-In . SVG Version: 6.00 Build 0)  -->
<svg version="1.1" id="Layer_1" xmlns="http://www.w3.org/2000/svg" xmlns:xlink="http://www.w3.org/1999/xlink" x="0px" y="0px"
	 viewBox="0 0 2184.2 291.9" style="enable-background:new 0 0 2184.2 291.9;" xml:space="preserve">
<style type="text/css">
	.st0{fill:none;stroke:#FFFFFF;stroke-width:2;stroke-miterlimit:10;}
	.st1{fill:none;stroke:#FFFFFF;stroke-width:2;stroke-linecap:square;stroke-miterlimit:10;}
	.st2{fill:none;stroke:#FFFFFF;stroke-width:2;stroke-linecap:round;stroke-miterlimit:10;}
	.st3{fill:#FFFFFF;}
</style>
<path class="st0" d="M958.4,147.6c0,35.6-27.1,64.5-60.5,64.5s-60.5-28.9-60.5-64.5c0-35.6,27.1-64.5,60.5-64.5
	S958.4,111.9,958.4,147.6z"/>
<path class="st0" d="M941.7,192.1c-22.7-8.7-38.8-29.6-38.8-54.1c0-19.1,9.8-36,24.8-46.7"/>
<path class="st0" d="M997.7,126.7l-18.8-2c-0.7-2.7-1.4-5.3-2.3-7.9l14.4-12.9c-1.3-3.2-2.8-6.4-4.4-9.5l-19.2,3.2
	c-1.5-2.3-3.1-4.6-4.7-6.7l10.1-16.7c-2.5-2.9-5.2-5.7-8.1-8.4l-15.6,11.1c-2.3-1.9-4.7-3.7-7.1-5.3l4-19.6
	c-2.9-1.6-5.8-3.1-8.8-4.5l-13.2,15.2c-2.5-0.9-5-1.6-7.6-2.2V40.9c-3.2-0.6-6.6-1.1-9.9-1.4l-7.4,18.7c-0.4,0-0.8,0-1.2,0
	c-2.4,0-4.8,0.1-7.2,0.4l-7.8-18.3c-3.6,0.6-7.2,1.4-10.7,2.3l1.4,19.5c-2.2,0.7-4.3,1.5-6.4,2.4l-12.6-15c-3,1.5-5.9,3.2-8.7,5
	l4.6,19.6c-2.2,1.6-4.3,3.3-6.3,5.2l-15.9-10.5c-2.6,2.6-5.1,5.4-7.4,8.3l11.1,15.7c-1.5,2.1-3,4.3-4.3,6.5l-18.8-3.6
	c-1.9,3.8-3.6,7.7-5.2,11.7l15.5,10.3c-0.7,2.1-1.3,4.2-1.9,6.3l-18.7,1.1c-0.6,3.2-1.1,6.4-1.5,9.7l17.4,6.7
	c-0.1,2.1-0.2,4.2-0.2,6.3c0,0.5,0,1,0,1.5l-17.4,10.2c0.3,2.9,0.7,5.7,1.2,8.5l19,2.8c0.7,2.9,1.6,5.7,2.5,8.5l-14.7,12
	c1.4,3.3,2.9,6.6,4.6,9.7l17.8-5.5c1.9,3.2,4,6.3,6.3,9.2l-11,15.7c2.2,2.6,4.6,5.1,7,7.5l15.3-11.2c2.4,2.1,4.9,4,7.5,5.8
	l-4.1,19.7c2.3,1.4,4.7,2.7,7.1,3.9l11.9-15.4c3.2,1.4,6.5,2.5,9.9,3.5l-0.2,19.6c3.2,0.7,6.4,1.3,9.6,1.7l7-18.5
	c1.5,0.1,3.1,0.1,4.6,0.1c1.2,0,2.5,0,3.7-0.1l7.6,18.5c3.3-0.4,6.5-0.9,9.7-1.7l-0.4-19.5c2.6-0.7,5.2-1.6,7.7-2.5l12.6,15.2
	c2.6-1.2,5.1-2.5,7.6-3.9l-4.1-19.6c2.5-1.7,4.9-3.5,7.3-5.5l15.1,11.5c2.9-2.7,5.7-5.6,8.3-8.6l-12-14.4c2.3-2.8,4.5-5.8,6.4-8.9
	l16.9,7.3c2.1-3.5,3.9-7.2,5.6-11l-14.4-12.6c1-2.7,1.9-5.4,2.7-8.2l18.5,0.2c0.9-4,1.6-8,2.1-12.2l-17.3-7.8
	c0.1-1.9,0.2-3.8,0.2-5.7c0-0.6,0-1.3,0-1.9l17.5-7.9C998.9,134,998.4,130.3,997.7,126.7z"/>
<polyline class="st0" points="972.8,74.2 1019.1,75.7 1014.7,68.7 964.8,65.8 "/>
<polyline class="st0" points="986.6,94.4 1034.1,94.4 1037.3,101.2 991,103.9 "/>
<polyline class="st0" points="997.7,126.7 1043.7,121.9 1045.3,129.6 999.2,137.8 "/>
<polyline class="st0" points="998.8,161 1045.3,151.9 1044,161 996.7,173.2 "/>
<polyline class="st0" points="990,193.7 1037.3,180.9 1033.1,187.3 984.4,204.7 "/>
<polyline class="st0" points="973,220.7 1021.2,202.1 1017.1,208.5 964.7,229.4 "/>
<path class="st0" d="M1023,166.4"/>
<path class="st0" d="M1037.3,180.9"/>
<polyline class="st0" points="946.1,52 995,53.6 984.4,50 937.3,47.5 "/>
<polyline class="st0" points="915.6,40.7 961.3,42.9 943.7,40.6 906.6,39.5 "/>
<line class="st0" x1="882.9" y1="40.2" x2="906.3" y2="40.2"/>
<line class="st0" x1="854.6" y1="49.4" x2="872.6" y2="49.4"/>
<line class="st0" x1="828.3" y1="68.4" x2="849.2" y2="68.6"/>
<line class="st0" x1="808.8" y1="95.4" x2="830.6" y2="94.4"/>
<polyline class="st0" points="1045.3,151.9 1027.2,144 1027.2,137.8 1045.3,129.6 "/>
<polyline class="st0" points="1043.7,121.9 1023,118.6 1021,114.3 1037.3,101.2 "/>
<polyline class="st0" points="1034.1,94.4 1011.9,93.1 1010.8,91.4 1019.1,75.7 "/>
<line class="st0" x1="995" y1="53.6" x2="995" y2="67.6"/>
<line class="st0" x1="961.3" y1="48.8" x2="961.3" y2="42.9"/>
<line class="st0" x1="1037.3" y1="180.9" x2="1022.5" y2="166.6"/>
<line class="st0" x1="809.4" y1="200.8" x2="828.3" y2="197.1"/>
<line class="st0" x1="829.4" y1="121.7" x2="852" y2="117.4"/>
<line class="st0" x1="855.2" y1="140" x2="876.8" y2="136.2"/>
<line class="st0" x1="919" y1="147.7" x2="938.2" y2="140"/>
<line class="st0" x1="886.3" y1="149.3" x2="907" y2="143.8"/>
<line class="st0" x1="1021.2" y1="202.1" x2="1014" y2="194.2"/>
<polyline class="st0" points="938.9,140.8 995,116.2 995,111.9 "/>
<path class="st0" d="M1390.7,246.8l-139.2-73.2c0,0-22.3-11.9-25.3-15.2c-3-3.3-15.2-9.5-17.5-11c-2.4-1.5-6.8-6.2-9.8-7.1
	c-3-0.9-12.8-3.6-18.1-4.2c-5.4-0.6-19.9-10.7-22-14.6c-2.1-3.9-1-10.4,1.5-12.6c2.5-2.2,11.3-6.1,16.8-2.1c5.5,4,17,12.6,17.7,14.1
	c0.7,1.5-1.2,2.7-0.1,3.1c1,0.4,5.8,2.1,7.3,2.8c1.5,0.7,6.2,6.2,9.2,7.1c3,0.9,13.2,4.9,17.4,7.1c4.2,2.2,19.8,12.6,22.2,13.1
	c2.4,0.4,6.8,0.6,9.2,1.6c2.4,1,177.9,93.1,177.9,93.1s1.2,0.9,1.3,1.9c0.2,1,0.6,4.9,0.6,4.9s-0.3,2.1-0.6,2.5
	c-0.3,0.4-7.4,9.4-7.4,9.4L1390.7,246.8z"/>
<path class="st0" d="M1250.9,138c0,0-12.4-65.1-27-80.8c-5.3-5.7-10.1-8.8-14.4-5.4c-4.3,3.4-5.1-5.1-6-12.7
	c-0.9-7.6-4.5-36.3-16.2,0c-11.8,36.3-16.8,53.4-10.9,64.1"/>
<path class="st0" d="M1259.9,155.9c0,0-11.1,2-2,9.3c0,0-15.4-2.3-13,4.7"/>
<path class="st0" d="M1176.4,134.7c0,0,9.7,3.2,16-7.1"/>
<path class="st0" d="M1206.1,135.1c5,2.2,17.7,8.8,26,14.8c8.3,6,25.7,15.3,25.7,15.3l177,90.3"/>
<path class="st0" d="M1205.2,61.7c0,0,4.4,33.4,4.4,40.7c0,12.7-9.2,9-18.1-0.7c-9.3-10-16.8,5.4-13.1-15.1
	c2.9-15.9,10.1-47.2,11.4-51c1.3-3.8,8.6-22.4,12-0.6C1205.1,56.6,1204.9,58.3,1205.2,61.7"/>
<path class="st0" d="M1202.3,63.4c-0.2-2.5-0.1-3.7-2.5-19.7c-2.4-16-7.8-2.4-8.8,0.5c-1,2.8-6.3,25.8-8.4,37.5
	c0,0-2.5,10.6,9.8,12.3C1204.8,95.6,1202.9,69.7,1202.3,63.4z"/>
<path class="st0" d="M1182.3,136.3c0,0,4.9-3.1,7.8-5"/>
<path class="st0" d="M1244.6,119.9c0,0-0.1,7.3-4.8,4.3c-4.6-3-8,0.3-9,3.3c-1,3-4-2.7-4.7-9c-0.7-6.3-13.1-4.3-13.7-9.7
	c-0.6-5.3-4.6-41.4-3.8-46c0.6-3.6-1-17.3,15.3,0.7C1238.2,79.2,1241.8,111.9,1244.6,119.9z"/>
<path class="st0" d="M1194.6,122.7c0,0-16.4-10.7-19.1-12.8c-2.7-2.1,18,14,18,14"/>
<path class="st0" d="M1226.5,142.1c0,0,18.1,12.2,22.4,13"/>
<path class="st0" d="M1633.4,132.5c7.8,0,14,0,16,0c6.4,0,8.5-6.2,8.5-6.2s6.5-13.5,8-16.5s1.8-4,1.8-4l1.2-19l5.5-10.2l-4.5-14.4
	l0.6-10.6l-9.1-10.4l-7.2-2.6h-31l-6.7,11.2c-11,0.5-18.2,11-18.2,11s-19.4,33.5-21,36c-2.1,3.4-0.8,6.6-0.8,6.6l5,12.8"/>
<path class="st0" d="M1598.9,132.5c5,0,11.1,0,17.4,0"/>
<path class="st0" d="M1637.7,124.7l-14.8,26.8c0,0-1.4,2.5-3.1,1.9c-1.8-0.6-4.1-3.4-5-6.3c-0.9-2.9-2.8-7.8-0.3-11.8
	S1630,110,1630,110h2.4L1637.7,124.7z"/>
<path class="st0" d="M1599.8,115.5l3.3,9.2l-14.8,26.8c0,0-1.4,2.5-3.1,1.9c-1.8-0.6-4.1-3.4-5-6.3c-0.9-2.9-2.8-7.8-0.3-11.8
	c0.7-1.1,2.3-3.7,4.2-6.7"/>
<path class="st0" d="M1613.4,93.9l-20,31.9c0,0-5.4,6.9-11.4,1.2c-6.1-5.8,0-11.8,0-11.8l19.6-30c0,0,4.6-4,9.5,0.6
	S1613.4,93.9,1613.4,93.9z"/>
<path class="st0" d="M1639.5,38.5c2.5-2.1,5.9-3.4,9.7-3.4c5.3,0,9.4,2.2,11.6,5.8"/>
<path class="st0" d="M1576.8,97.4l13.4-20.1c0,0,3.6-4.5,10-5.2s12,1.8,15.2,3.6s26.8,18.8,26.8,18.8s6.2,3.6,9.1,12.5
	s4.2,14,4.2,14s2,5.2,0,8.9"/>
<line class="st0" x1="1662.4" y1="55.8" x2="1660.1" y2="80.8"/>
<line class="st0" x1="1670.3" y1="70.8" x2="1668.7" y2="88"/>
<path class="st0" d="M1616.4,49.9c0,0,13.8-1.9,24,9.9"/>
<path class="st0" d="M1623.3,140.7c0,2.3-1,4.1-2.2,4.1c-1.2,0-2.2-1.8-2.2-4.1s1-4.1,2.2-4.1
	C1622.3,136.6,1623.3,138.5,1623.3,140.7z"/>
<path class="st0" d="M1588.5,140.7c0,2.3-1,4.1-2.2,4.1c-1.2,0-2.2-1.8-2.2-4.1s1-4.1,2.2-4.1
	C1587.5,136.6,1588.5,138.5,1588.5,140.7z"/>
<path class="st0" d="M1665.2,45.5c0,0,10.2-18.2,20.7-14.4s19.2,24.8,19.2,24.8"/>
<path class="st0" d="M1670.9,37.8c0,0,20.5,3.7,30.2,57.5s34.6,177.6,47.3,182.7c10.4,4.2,20.8,1.2,23,0s17-10.2,30.8-46.2
	s25.8-54.1,33-48.2c0,0,11.2,9.5,15.8,50.5"/>
<path class="st0" d="M1649.2,35.1c0,0,6.3-6.4,8.9-8.6c3.2-2.7,11.2-3,17.8-3s15.5-0.2,23.8,11.8s14.4,25.3,19.6,56.7
	c5.3,32.4,28.8,175.3,44.5,184.3"/>
<path class="st0" d="M1759.7,271.9c0,0,9.8-4.1,17.6-17.6c7.8-13.5,19.2-42.5,24.8-54.5s14.2-25.2,26.2-25.2s22.5,2.7,29.2,36.5"/>
<path class="st0" d="M274.7,126.8l19.2,7.1c0,0,1.5,1,7.4,0c5.9-1,30.7-5.9,30.7-5.9s8.1-0.4,7.1-11.2c-0.8-8.1-4-11.3-4-11.3"/>
<path class="st0" d="M276.5,119c0,0,1.8,1.2,0.8,3.8c-1,2.6-1.5,2.9-1.5,2.9s-1.3,2.2-3.6,0.8c-2.4-1.4-12.1-5.2-12.1-5.2
	s-5.7-2.3-13.1-0.8c-7.3,1.5-191.4,34.7-191.4,34.7s-19.6,2.5-26.7-3.4c-7.2-5.9-9.6-9.3-9.6-9.3s-1.3-2.2-1.3-5.6
	c0-3.5,0.6-14,14.9-17S230.9,86,230.9,86s5.4-0.9,9.9,0.7c4.5,1.6,16.1,6.4,16.1,6.4s1.2,0.1,1.3,1.1l18.9,8.2c0,0,2.3,1.2,10.9-0.4
	l15.2-3"/>
<path class="st0" d="M334.7,108.3c-1.8,5.4-10.2,7.5-18.8,4.7c-8.6-2.8-14.1-9.5-12.3-14.9c1.8-5.4,10.2-7.5,18.8-4.7
	C331,96.2,336.5,102.9,334.7,108.3z"/>
<path class="st0" d="M303.3,98.9v-0.6l-4.9,13l13.8,10.9l18.9-0.8l1-4.3c0,0-2.4-2.7-8-2.7c-5.6,0-9.9,2.8-9.9,2.8s-2.5-5.3-5-7.4
	c-2.5-2.1-7.3-3.9-8.9-3.4"/>
<path class="st0" d="M277.6,121.3c0,0,16.7,6.9,19.3,7.5c2.7,0.7,7.6,0.6,11.7,0c4-0.6,25.2-5.6,25.2-5.6s5.3-1.2,5.3-6.6"/>
<path class="st0" d="M331.1,128.1c0,0-1,5.7-9.6,6.9c-8.6,1.2-14.1-2.3-14.1-2.3"/>
<path class="st0" d="M286.8,131.2l-1.6,4.1c0,0-1.1,5.8,2.8,9.4c3.9,3.6,10.1,7.5,11.9,8.8c1.8,1.2,7.8,5.6,15.4,3.3
	c7.6-2.4,9.6-8,10.7-10.1c0,0,1.1-1.2,2.9-3.2c1.8-2,1.1-3.7,1.3-4.6l11-0.8c0,0,1.3-0.4,2.3-2.7c1-2.3,1.3-4.4,0.7-7.2
	c-0.7-2.8-1.5-6.2-5.4-6"/>
<path class="st0" d="M282.3,129.6l-8.5,1.5c0,0-7.3,1.6-10.2,7.5c0,0-6.2-3.7-13.2-2.9c-7,0.8-22.6,3.7-22.6,3.7l-9.6,13l-1,31.6
	l7.1,20l2.4,5l16.8,14.7l10.7-13.5l0.6-32.7l-9.5-25.8l-16.9-11.3"/>
<path class="st0" d="M243.5,223.6l24.5-4.5c0,0,5.4-2.6,6.7-4.2l9.2-1.2c0,0,2.3,2.3,7.3,1.6c5.1-0.7,17.4-3.3,17.4-3.3
	s5.1,4.6,10.8,3.6c5.7-1,22.7-4.6,22.7-4.6s11-2.4,13.3-16.3l3.2-0.5c0,0,7.7-7.3,2.9-34.9c-4.7-27.1-14.8-31.7-17.7-31.7"/>
<path class="st0" d="M361.3,141.7c3.6,7.1,8.7,25.4,6.6,38.1c-2.1,12.7-8.3,13.4-8.3,13.4l17.7-3.9c0,0,6.2-0.7,8.3-13.4
	c2.1-12.7-3-31-6.6-38.1"/>
<path class="st0" d="M363.9,192.2c0,0,6.2-0.7,8.3-13.4c2.1-12.7-3-31-6.6-38.1"/>
<path class="st0" d="M368.3,191.2c0,0,6.2-0.7,8.3-13.4c2.1-12.7-3-31-6.6-38.1"/>
<path class="st0" d="M372.8,190.2c0,0,6.2-0.7,8.3-13.4c2.1-12.7-3-31-6.6-38.1"/>
<path class="st0" d="M345.4,127.6l19.7-2c0,0,3.5-0.4,5,0.7c1.5,1.1,9.1,6,12.7,17.6c3.6,11.6,5.4,22.2,3,30.9
	c0,0-1.2,12.4-8.5,14.5c-7.3,2.1-17.7,3.9-17.7,3.9"/>
<path class="st0" d="M355.5,194.7c0,0,2.6-21.4,0-33.9c-2.6-12.5-8.4-25-11.4-27.5"/>
<path class="st0" d="M317.9,215.9c0,0,10.9-0.8,13.2-22.2c2.3-21.4-3.4-43.8-5.2-47"/>
<path class="st0" d="M308.6,212.1l6.4-1.3c0,0,2.4-0.6,3.9-3.7c5-9.8,7.1-23.1,4.6-39.1"/>
<path class="st0" d="M235.6,148.9c2.6,1.7,12.9,10.8,15.3,34.7c2.4,23.9-4.7,34.2-14.2,29.7c-9.5-4.5-16.3-27.3-16.7-36.6
	C219.6,167.3,223.7,141.1,235.6,148.9z"/>
<path class="st0" d="M236.7,213.2c0,0-16.7-16.9-12-42.2"/>
<path class="st0" d="M228.2,169.9c-4.7,25.4,12,42.2,12,42.2s1.3,1.4,2.7,1.9"/>
<path class="st0" d="M231.8,168.7c-4.7,25.4,12,42.2,12,42.2s1,1.2,1.8,1.5"/>
<path class="st0" d="M247.6,210.1c0,0-17-17.1-12.3-42.5"/>
<path class="st0" d="M249.2,206.9c-4.1-5-14.2-19.9-10.3-40.4"/>
<path class="st0" d="M250.4,202.6c-4.6-6.8-11.2-20.1-8-37.2"/>
<path class="st0" d="M251.2,196.9c-4-7.4-7.8-18.8-5.2-32.6"/>
<path class="st0" d="M19.5,135.3c0,0,5.4,17.5,31.4,15.7c35.6-2.4,191.9-34.3,191.9-34.3s16.7-3.2,29.5,1.6"/>
<line class="st0" x1="254.1" y1="210.2" x2="273.5" y2="206.9"/>
<line class="st0" x1="254.7" y1="177.5" x2="274.3" y2="174.8"/>
<line class="st0" x1="245.2" y1="151.6" x2="264.8" y2="148.9"/>
<path class="st0" d="M274.7,215c0,0,7.1-3.6,5.8-34.1"/>
<path class="st0" d="M283.9,213.8c0,0,9.8-8.4,4.8-45"/>
<polyline class="st0" points="331.1,121.3 335,107.5 332.1,117 "/>
<line class="st0" x1="258" y1="94.2" x2="274" y2="114.5"/>
<path class="st1" d="M588.7,283.9c98.7,0,87.7-33.6,87.7-33.6l-51.2-146.8c0,0,0-72.1,0-75.3c0-3.2,1.3-4.5,1.3-4.5l2.3-2.6V17
	c-6.8-5.6-29.4-6.1-40.2-6c-10.8-0.1-33.4,0.3-40.2,6v4.1l2.3,2.6c0,0,1.3,1.3,1.3,4.5c0,3.2,0,75.3,0,75.3l-51.2,146.8
	C500.8,250.3,490,283.9,588.7,283.9z"/>
<path class="st1" d="M671.6,144.2c0,0,6.4,28.9-83,28.9c-89.3,0-83-28.9-83-28.9"/>
<path class="st1" d="M669.1,241.7l-48.1-138.2V25.8c0,0-9.9,4.2-32.3,4.2c-22.3,0-32.3-4.2-32.3-4.2v77.7l-48.1,138.2"/>
<path class="st1" d="M623.7,20.5c0,0-5.2,5.9-35.1,5.9c-29.9,0-35.1-5.9-35.1-5.9"/>
<path class="st1" d="M613.8,140.9c-7.2-0.4-15.5-0.7-25.1-0.7l0,0c-77.6,0-71.1,16.3-71.1,16.3"/>
<path class="st1" d="M659.8,156.5c0,0,3.6-9.1-26.9-13.7"/>
<path class="st2" d="M617.7,121.3c0,0-8.2,3.3-22,2.8"/>
<path class="st2" d="M623.7,164.3c0,0-8.3,2-22,2.8"/>
<path class="st2" d="M628.7,191.8c0,0-8,2-22,2.8"/>
<path class="st2" d="M633.4,107.6c0,0-7.9,2-22,2.8"/>
<path class="st2" d="M636.5,124.3c0,0-7.8,2-22,2.8"/>
<path class="st0" d="M544,191.8l-0.9,14.9c0,0,0.4,5.4,5.4,6.2c5.1,0.8,14.3,1.9,18.2,2.1c3.9,0.2,19.5,0,19.5,0s5.8-2.4,5.8-7.1
	c0-4.7,0-12.8,0-12.8s-0.9-5.6-4.9-5.6c-3.9,0-12.8,0.1-19.6,0c-8.4-0.1-16-1.3-16-1.3S544,185.8,544,191.8z"/>
<g>
	<path class="st3" d="M2021.8,257.3h11.4h0.7h10.5h0.7h11.4h0.7h10.5h0.7h11.4h0.7h10.5h0.3l-0.1,8.8l-1.1,1.4l0.1,5.7l-6.5,0.1
		l-0.3,0l-0.2,0.2l-0.4,0.4l-1,1l-0.5,0.5l-0.2,0.2l0,0.2l0.1,5.4l-7.8-0.1l-0.1,0.2h0l-0.2,0.7h0l-1.4,4.1h0.5l2-4l6.3-0.1l0,0
		l1.1,0l0.6,0l0.1-6l1.3-1.2h7.4h0.7l0.2-6.8l1.5-1.4l0.1-2.9h0l0.1-5.9l8.1,0.1l1.2,0l0-0.6h0.3h0.7h10.5h0.7h11.4h0.7h10.5h0.7
		h11.4h0.7h10.5h0.7h11.4h0.7h10.5h0.7h0.2v-0.7h-0.2v-6.5h0.2v-0.7h-0.2h-0.7h-10.5V243h10.5h0.7h0.2v-0.7h-0.2v-6.5h0.2v-0.7h-0.2
		h-0.7h-10.5v-6.5h10.5h0.7h0.2V228h-0.2v-6.5h0.2v-0.7h-0.2h-0.7h-10.5v-6.5h10.5h0.7h0.2v-0.7h-0.2v-6.5h0.2v-0.7h-0.2h-0.7h-10.5
		V202h2.2v-2h8.3h0.7h0.2v-0.7h-0.2v-6.5h0.2v-0.7h-0.2h-0.7h-10.5v-6.5h10.5h0.7h0.2V185h-0.2v-6.5h0.2v-0.7h-0.2h-0.7h-10.5v-6.5
		h10.5h0.7h0.2v-0.7h-0.2v-6.5h0.2v-0.7h-0.2h-0.7h-10.5V157h10.5h0.7h0.2v-0.7h-0.2v-6.5h0.2v-0.7h-0.2h-0.7h-10.5v-6.5h10.5h0.7
		h0.2V142h-0.2v-6.5h0.2v-0.7h-0.2h-0.7h-10.5v-6.5h10.5h0.7h0.2v-0.7h-0.2v-6.5h0.2v-0.7h-0.2h-0.7h-10.5V114h10.5h0.7h0.2v-0.7
		h-0.2v-6.5h0.2v-0.7h-0.2h-0.7h-10.5v-6.5h10.5h0.7h0.2V99h-0.2v-6.5h0.2v-0.7h-0.2h-0.7h-10.5v-6.5h10.5h0.7h0.2v-0.7h-0.2v-6.5
		h0.2v-0.7h-0.2h-0.7h-10.5V71h10.5h0.7h0.2v-0.7h-0.2v-6.5h0.2v-0.7h-0.2h-0.7h-10.5v-6.5h10.5h0.7h0.2V56h-0.2v-6.5h0.2v-0.7h-0.2
		h-0.7h-10.5v-6.5h10.5h0.7h0.2v-0.7h-0.2v-6.5h0.2v-0.7h-0.2h-0.7h-10.5V28h10.5h0.7h0.2v-0.7h-0.2v-6.5h0.2v-0.7h-0.2h-0.7h-10.5
		v-6.5h11.4V13h-11.4h-0.7h-22.6h-0.7h-22.6h-0.7h-22.6h-0.7h-22.6h-0.7h-22.6h-0.7h-22.6h-0.7h-18.1v0.7h18.1v6.5h-11.4h-0.7h-6
		v0.7h6v6.5h-6V28h6h0.7h11.4v6.5h-11.4h-0.7h-6v0.7h6v6.5h-6v0.7h6h0.7h11.4v6.5h-11.4h-0.7h-6v0.7h6V56h-6v0.7h6h0.7h11.4v6.5
		h-11.4h-0.7h-6v0.7h6v6.5h-6V71h6h0.7h11.4v6.5h-11.4h-0.7h-6v0.7h6v6.5h-6v0.7h6h0.7h11.4v6.5h-11.4h-0.7h-6v0.7h6V99h-6v0.7h6
		h0.7h11.4v6.5h-11.4h-0.7h-6v0.7h6v6.5h-6v0.7h6h0.7h11.4v6.5h-11.4h-0.7h-6v0.7h6v6.5h-6v0.7h6h0.7h11.4v6.5h-11.4h-0.7h-6v0.7h6
		v6.5h-6v0.7h6h0.7h11.4v6.5h-11.4h-0.7h-6v0.7h6v6.5h-6v0.7h6h0.7h11.4v6.5h-11.4h-0.7h-6v0.7h6v6.5h-6v0.7h6h0.7h11.4v6.5h-11.4
		h-0.7h-6v0.7h6v6.5h-6v0.7h6h0.7h11.4v6.5h-11.4h-0.7h-6v0.7h6v6.5h-6v0.7h6h0.7h3.1v2h8.3v4.5h-11.4h-0.7h-6v0.7h6v6.5h-6v0.7h6
		h0.7h11.4v6.5h-11.4h-0.7h-6v0.7h6v6.5h-6v0.7h6h0.7h11.4v6.5h-11.4h-0.7h-6v0.7h6v6.5h-6v0.7h6h0.7h11.4v6.5h-11.4h-0.7h-6v0.7h6
		v6.5h-6v0.7h6H2021.8z M2044.5,249.5h-10.5V243h10.5h0.7h11.4v6.5h-11.4H2044.5z M2056.5,202v4.5h-11.4h-0.7h-10.5V202H2056.5z
		 M2040.2,192.1h-6.2v-6.5h6.2V192.1z M2040.2,177.8h-6.2v-6.5h6.2V177.8z M2040.2,163.5h-6.2V157h6.2V163.5z M2040.2,149.1h-6.2
		v-6.5h6.2V149.1z M2040.2,134.8h-6.2v-6.5h6.2V134.8z M2040.2,120.5h-6.2V114h6.2V120.5z M2040.2,106.1h-6.2v-6.5h6.2V106.1z
		 M2040.2,91.8h-6.2v-6.5h6.2V91.8z M2040.2,77.5h-6.2V71h6.2V77.5z M2040.2,63.1h-6.2v-6.5h6.2V63.1z M2040.2,48.8h-6.2v-6.5h6.2
		V48.8z M2040.2,34.5h-6.2V28h6.2V34.5z M2160.9,35.2v6.5h-0.2v-4.4v-2.1H2160.9z M2160.7,34.5V28h0.2h0.7h11.4v6.5h-11.4h-0.7
		H2160.7z M2160.9,42.3h0.7h11.4v6.5h-11.4h-0.7h-0.2v-6.5H2160.9z M2160.9,49.5V56h-0.2v-6.5H2160.9z M2160.9,56.7h0.7h11.4v6.5
		h-11.4h-0.7h-0.2v-6.5H2160.9z M2160.9,63.8v6.5h-0.2v-6.5H2160.9z M2160.9,71h0.7h11.4v6.5h-11.4h-0.7h-0.2V71H2160.9z
		 M2160.9,78.2v6.5h-0.2v-6.5H2160.9z M2160.9,85.3h0.7h11.4v6.5h-11.4h-0.7h-0.2v-6.5H2160.9z M2160.9,92.5V99h-0.2v-6.5H2160.9z
		 M2160.9,99.6h0.7h11.4v6.5h-11.4h-0.7h-0.2v-6.5H2160.9z M2160.9,106.8v6.5h-0.2v-6.5H2160.9z M2160.9,114h0.7h11.4v6.5h-11.4
		h-0.7h-0.2V114H2160.9z M2160.9,121.1v6.5h-0.2v-6.5H2160.9z M2160.9,128.3h0.7h11.4v6.5h-11.4h-0.7h-0.2v-6.5H2160.9z
		 M2160.9,135.5v6.5h-0.2v-6.5H2160.9z M2160.9,142.6h0.7h11.4v6.5h-11.4h-0.7h-0.2v-6.5H2160.9z M2160.9,149.8v6.5h-0.2v-6.5
		H2160.9z M2160.9,157h0.7h11.4v6.5h-11.4h-0.7h-0.2V157H2160.9z M2160.9,164.1v6.5h-0.2v-6.5H2160.9z M2160.9,171.3h0.7h11.4v6.5
		h-11.4h-0.7h-0.2v-6.5H2160.9z M2160.9,178.5v6.5h-0.2v-6.5H2160.9z M2160.9,185.6h0.7h11.4v6.5h-11.4h-0.7h-0.2v-6.5H2160.9z
		 M2160.9,192.8v1.4h-0.2v-1.4H2160.9z M2173,202v4.5h-11.4h-0.7h-10.5V202H2173z M2125.1,227.1c-3.4,0-6.7-0.1-10.1-0.1v-5.6h10.2
		C2125.1,223.4,2125.1,225.2,2125.1,227.1z M2126.3,229.7l0.1,0v5.5H2116c0-1.8,0-3.6,0-5.4C2119.4,229.7,2122.9,229.7,2126.3,229.7
		z M2116,243h10.4v6.5H2116L2116,243z M2116,242.3l0-3.3c0-1.1,0-2.1,0-3.2h10.4h0.7h10.5v6.5h-10.5h-0.7H2116z M2113.3,235.1h-9.5
		v-6.5h9.5C2113.3,230.8,2113.3,233,2113.3,235.1z M2113.3,248.3c-3.2,0-6.3,0-9.5,0.1V243h9.5L2113.3,248.3z M2113.3,235.8
		c0,1.1,0,2.1,0,3.2l0,3.3h-9.5h-0.7h-11.4v-6.5h11.4h0.7H2113.3z M2103.1,235.1h-11.4h-0.7h-10.5v-6.5h10.5h0.7h11.4V235.1z
		 M2091,207.1v6.5h-10.5h-0.7h-11.4v-6.5h11.4h0.7H2091z M2080.5,206.5V202h22.6v4.5h-11.4h-0.7H2080.5z M2068.4,221.5h11.4h0.7
		h10.5v6.5h-10.5h-0.7h-11.4V221.5z M2067.7,220.8h-10.5v-6.5h10.5h0.7h11.4v6.5h-11.4H2067.7z M2079.8,206.5h-11.4h-0.7h-10.5V202
		h22.6V206.5z M2067.7,207.1v6.5h-10.5h-0.7h-11.4v-6.5h11.4h0.7H2067.7z M2057.2,221.5h10.5v6.5h-10.5h-0.7h-11.4v-6.5h11.4H2057.2
		z M2057.2,235.8h10.5v6.5h-10.5h-0.7h-11.4v-6.5h11.4H2057.2z M2057.2,235.1v-6.5h10.5h0.7h11.4v6.5h-11.4h-0.7H2057.2z
		 M2068.4,235.8h11.4h0.7h10.5v6.5h-10.5h-0.7h-11.4V235.8z M2091,220.8h-10.5v-6.5h10.5h0.7h11.4v6.5h-11.4H2091z M2091.7,213.6
		v-6.5h11.4h0.7h10.5v6.5h-10.5h-0.7H2091.7z M2103.8,206.5V202h22.6v4.5H2115h-0.7H2103.8z M2115,207.1h11.4h0.7h10.5v5.5l-0.2,0
		l-0.8,0.2l0,0.8h-9.6h-0.7H2115V207.1z M2149.7,207.1h0.7h10.5v6.5h-10.5h-0.7h-8.4l0.6-0.2l0-0.6l0.1-5.7H2149.7z M2142,206.5
		l0.1-4.5h7.6v4.5H2142z M2150.4,221.5h10.5v6.5h-10.5h-0.7h-11.4v-6.5h11.4H2150.4z M2149.7,214.3v6.5h-11.4h0l0.4-6.4l0.4-0.1
		H2149.7z M2138.3,212.5v-5.3h1.8l0.1,5L2138.3,212.5z M2138.3,206.5h-0.7h-10.5V202h12.8l0.1,4.5H2138.3z M2137.6,221.7v6.3h-10.1
		c0-1.9-0.1-3.9-0.1-5.8L2137.6,221.7z M2127.1,220v-5.7h9.6l0.3,6.2L2127.1,220z M2127.1,235.1v-5.5l0.5,0l0-1h10h0.7h11.4v6.5
		h-11.4h-0.7H2127.1z M2138.3,235.8h11.4h0.7h10.5v6.5h-10.5h-0.7h-11.4V235.8z M2150.4,235.1v-6.5h10.5h0.7h11.4v6.5h-11.4h-0.7
		H2150.4z M2160.9,220.8h-10.5v-6.5h10.5h0.7h11.4v6.5h-11.4H2160.9z M2156.1,37v0.3v4.4V42v0.3v6.5v0.3v0.3V56v0.3v0.3v6.5v0.3v0.3
		v6.5v0.3V71v6.5v0.3v0.3v6.5V85v0.3v6.5v0.3v0.3V99v0.3v0.3v6.5v0.3v0.3v6.5v0.3v0.3v6.5v0.3v0.3v6.5v0.3v0.3v6.5v0.3v0.3v6.5v0.3
		v0.3v6.5v0.3v0.3v6.5v0.3v0.3v6.5v0.3v0.3v6.5v0.3v0.3v6.5v0.3v0.3v6.5v0.3v0.3v4.5h-0.3h-5.4h-0.3h-0.3h-22.6h-0.3h-0.3h-22.6
		h-0.3h-0.3h-22.6h-0.3h-0.3h-22.6h-0.3h-0.3h-11.5h-0.3v-4.5v-0.3V185v-6.5v-0.3v-0.3v-6.5V171v-0.3v-6.5v-0.3v-0.3V157v-0.3v-0.3
		v-6.5v-0.3v-0.3v-6.5v-0.3V142v-6.5v-0.3v-0.3v-6.5V128v-0.3v-6.5v-0.3v-0.3V114v-0.3v-0.3v-6.5v-0.3v-0.3v-6.5v-0.3V99v-6.5v-0.3
		v-0.3v-6.5V85v-0.3v-6.5v-0.3v-0.3V71v-0.3v-0.3v-6.5v-0.3v-0.3v-6.5v-0.3V56v-6.5v-0.3v-0.3v-6.5V42v-0.3v-4.4V37v-0.3h0h0.3h22.6
		h0.3h0.3h22.6h0.3h0.3h22.6h0.3h0.3h22.6h0.3h0.3h17.8V37z M2045.1,214.3h11.4v6.5h-11.4h-0.7h-10.5v-6.5h10.5H2045.1z
		 M2045.1,228.6h11.4v6.5h-11.4h-0.7h-10.5v-6.5h10.5H2045.1z M2067.7,256.6h-10.5h-0.7h-11.4v-6.5h11.4h0.7h10.5V256.6z
		 M2067.7,249.5h-10.5V243h10.5h0.7h11.4v6.5h-11.4H2067.7z M2091,256.6h-10.5h-0.7h-11.4v-6.5h11.4h0.7h10.5V256.6z M2092.5,255.6
		l-0.8,0v-5.5h8.7l0.1,5.4L2092.5,255.6z M2101.6,248.4l-1.3,0l0,1.1h-8.7h-0.7h-10.5V243h10.5h0.7h11.4v5.4
		C2102.6,248.4,2102.1,248.4,2101.6,248.4z M2114.3,256.6h-10.5h-0.7h-0.3l0.1-5.8c3.8,0,7.7,0.1,11.5,0.1V256.6z M2114.3,227l-1,0
		l0,0.9h-9.5h-0.7h-11.4v-6.5h11.4h0.7h10.5V227z M2114.3,220.8h-10.5v-6.5h10.5h0.7h11.4v5.7l-0.1,0l-1.1-0.1l0,0.9H2115H2114.3z
		 M2137.6,256.6h-10.5h-0.7H2115V251l1,0l0-0.8h10.4h0.7h10.5V256.6z M2137.6,249.5h-10.5V243h10.5h0.7h11.4v6.5h-11.4H2137.6z
		 M2160.9,256.6h-10.5h-0.7h-11.4v-6.5h11.4h0.7h10.5V256.6z M2160.9,249.5h-10.5V243h10.5h0.7h11.4v6.5h-11.4H2160.9z
		 M2184.2,250.1v6.5h-10.5h-0.7h-11.4v-6.5h11.4h0.7H2184.2z M2184.2,235.8v6.5h-10.5h-0.7h-11.4v-6.5h11.4h0.7H2184.2z
		 M2184.2,221.5v6.5h-10.5h-0.7h-11.4v-6.5h11.4h0.7H2184.2z M2184.2,207.1v6.5h-10.5h-0.7h-11.4v-6.5h11.4h0.7H2184.2z
		 M2184.2,192.8v6.5h-8.3v-5.1h-14.3v-1.4h11.4h0.7H2184.2z M2184.2,178.5v6.5h-10.5h-0.7h-11.4v-6.5h11.4h0.7H2184.2z
		 M2184.2,164.1v6.5h-10.5h-0.7h-11.4v-6.5h11.4h0.7H2184.2z M2184.2,149.8v6.5h-10.5h-0.7h-11.4v-6.5h11.4h0.7H2184.2z
		 M2184.2,135.5v6.5h-10.5h-0.7h-11.4v-6.5h11.4h0.7H2184.2z M2184.2,121.1v6.5h-10.5h-0.7h-11.4v-6.5h11.4h0.7H2184.2z
		 M2184.2,106.8v6.5h-10.5h-0.7h-11.4v-6.5h11.4h0.7H2184.2z M2184.2,92.5V99h-10.5h-0.7h-11.4v-6.5h11.4h0.7H2184.2z M2184.2,78.2
		v6.5h-10.5h-0.7h-11.4v-6.5h11.4h0.7H2184.2z M2184.2,63.8v6.5h-10.5h-0.7h-11.4v-6.5h11.4h0.7H2184.2z M2184.2,49.5V56h-10.5h-0.7
		h-11.4v-6.5h11.4h0.7H2184.2z M2184.2,35.2v6.5h-10.5h-0.7h-11.4v-6.5h11.4h0.7H2184.2z M2173.7,20.8h10.5v6.5h-10.5h-0.7h-11.4
		v-6.5h11.4H2173.7z M2150.4,13.7h22.6v6.5h-11.4h-0.7h-10.5V13.7z M2150.4,20.8h10.5v6.5h-0.2v-2h-22.4v-4.5h11.4H2150.4z
		 M2127.1,13.7h22.6v6.5h-11.4h-0.7h-10.5V13.7z M2127.1,20.8h10.5v4.5H2115v-4.5h11.4H2127.1z M2103.8,13.7h22.6v6.5H2115h-0.7
		h-10.5V13.7z M2103.8,20.8h10.5v4.5h-22.6v-4.5h11.4H2103.8z M2080.5,13.7h22.6v6.5h-11.4h-0.7h-10.5V13.7z M2080.5,20.8h10.5v4.5
		h-22.6v-4.5h11.4H2080.5z M2057.2,13.7h22.6v6.5h-11.4h-0.7h-10.5V13.7z M2057.2,20.8h10.5v4.5h-22.6v-4.5h11.4H2057.2z
		 M2033.9,13.7h22.6v6.5h-11.4h-0.7h-10.5V13.7z M2021.8,27.3v-6.5h11.4h0.7h10.5v4.5h-4.3v2h-6.2h-0.7H2021.8z M2021.8,41.7v-6.5
		h11.4h0.7h6.2v2.1v4.4h-6.2h-0.7H2021.8z M2021.8,56v-6.5h11.4h0.7h6.2V56h-6.2h-0.7H2021.8z M2021.8,70.3v-6.5h11.4h0.7h6.2v6.5
		h-6.2h-0.7H2021.8z M2021.8,84.6v-6.5h11.4h0.7h6.2v6.5h-6.2h-0.7H2021.8z M2021.8,99v-6.5h11.4h0.7h6.2V99h-6.2h-0.7H2021.8z
		 M2021.8,113.3v-6.5h11.4h0.7h6.2v6.5h-6.2h-0.7H2021.8z M2021.8,127.6v-6.5h11.4h0.7h6.2v6.5h-6.2h-0.7H2021.8z M2021.8,142v-6.5
		h11.4h0.7h6.2v6.5h-6.2h-0.7H2021.8z M2021.8,156.3v-6.5h11.4h0.7h6.2v6.5h-6.2h-0.7H2021.8z M2021.8,170.6v-6.5h11.4h0.7h6.2v6.5
		h-6.2h-0.7H2021.8z M2021.8,185v-6.5h11.4h0.7h6.2v6.5h-6.2h-0.7H2021.8z M2025,194.2v5.1h-3.1v-6.5h11.4h0.7h6.2v1.4H2025z
		 M2021.8,213.6v-6.5h11.4h0.7h10.5v6.5h-10.5h-0.7H2021.8z M2021.8,228v-6.5h11.4h0.7h10.5v6.5h-10.5h-0.7H2021.8z M2021.8,242.3
		v-6.5h11.4h0.7h10.5v6.5h-10.5h-0.7H2021.8z M2021.8,250.1h11.4h0.7h10.5v6.5h-10.5h-0.7h-11.4V250.1z"/>
	<path class="st3" d="M2137.9,37.3h-0.3H2115h-0.3h-0.3h-22.6h-0.3h-0.3h-22.6h-0.3h-0.3h-22.3v4.4V42v0.3v6.5v0.3v0.3V56v0.3v0.3
		v6.5v0.3v0.3v6.5v0.3V71v6.5v0.3v0.3v6.5V85v0.3v6.5v0.3v0.3V99v0.3v0.3v6.5v0.3v0.3v6.5v0.3v0.3v6.5v0.3v0.3v6.5v0.3v0.3v6.5v0.3
		v0.3v6.5v0.3v0.3v6.5v0.3v0.3v6.5v0.3v0.3v6.5v0.3v0.3v6.5v0.3v0.3v6.5v0.3v0.3v6.5v0.3v0.3v3.8h11.1h0.3h0.3h22.6h0.3h0.3h22.6
		h0.3h0.3h22.6h0.3h0.3h22.6h0.3h0.3h5.1v-3.8v-0.3V185v-6.5v-0.3v-0.3v-6.5V171v-0.3v-6.5v-0.3v-0.3V157v-0.3v-0.3v-6.5v-0.3v-0.3
		v-6.5v-0.3V142v-6.5v-0.3v-0.3v-6.5V128v-0.3v-6.5v-0.3v-0.3V114v-0.3v-0.3v-6.5v-0.3v-0.3v-6.5v-0.3V99v-6.5v-0.3v-0.3v-6.5V85
		v-0.3v-6.5v-0.3v-0.3V71v-0.3v-0.3v-6.5v-0.3v-0.3v-6.5v-0.3V56v-6.5v-0.3v-0.3v-6.5V42v-0.3v-4.4h-17.2H2137.9z M2149.6,113.6v0.3
		v6.5v0.3v0.3v6.5v0.3v0.3v6.5v0.3v0.3v6.5v0.3v0.3v6.5v0.3v0.3v6.5v0.3v0.3v6.5v0.3v0.3v6.5v0.3v0.3v6.5v0.3v0.3v5.8h-11.3h-0.3
		h-0.3H2115h-0.3h-0.3h-22.6h-0.3h-0.3h-22.6h-0.3h-0.3h-16.5v-5.8v-0.3v-0.3v-6.5V171v-0.3v-6.5v-0.3v-0.3V157v-0.3v-0.3v-6.5v-0.3
		v-0.3v-6.5v-0.3V142v-6.5v-0.3v-0.3v-6.5V128v-0.3v-6.5v-0.3v-0.3V114v-0.3v-0.1h5.3h0.7h10.5h0.3h0.3h11.4h0.7h10.5h0.3h0.3h11.4
		h0.7h10.5h0.3h0.3h11.4h0.7h10.5h0.3h0.3L2149.6,113.6L2149.6,113.6z M2149.6,48.8v0.3v0.3V56v0.3v0.3v6.5v0.3v0.3v6.5v0.3V71v6.5
		v0.3v0.3v6.5V85v0.3v6.5v0.3v0.3V99v0.3v0.3v6.5v0.3v0.3v0.8h-11.3h-0.3h-0.3H2115h-0.3h-0.3h-22.6h-0.3h-0.3h-22.6h-0.3h-0.3
		h-16.5v-0.8v-0.3v-0.3v-6.5v-0.3V99v-6.5v-0.3v-0.3v-6.5V85v-0.3v-6.5v-0.3v-0.3V71v-0.3v-0.3v-6.5v-0.3v-0.3v-6.5v-0.3V56v-6.5
		v-0.3v-0.3v-5.9h5.3h0.3h0.3h22.6h0.3h0.3h22.6h0.3h0.3h22.6h0.3h0.3h22.5V48.8z"/>
</g>
</svg>
