<?xml version="1.0" standalone="no"?>
<!DOCTYPE svg PUBLIC "-//W3C//DTD SVG 20010904//EN"
 "http://www.w3.org/TR/2001/REC-SVG-20010904/DTD/svg10.dtd">
<svg version="1.0" xmlns="http://www.w3.org/2000/svg"
 width="457.000000pt" height="457.000000pt" viewBox="0 0 457.000000 457.000000"
 preserveAspectRatio="xMidYMid meet">
<metadata>
Created by potrace 1.11, written by Peter Selinger 2001-2013
</metadata>
<g transform="translate(0.000000,457.000000) scale(0.100000,-0.100000)"
fill="#000000" stroke="none">
<path d="M2421 4560 c-11 -6 -14 -50 -13 -200 0 -105 2 -193 4 -194 1 -2 33
-6 70 -10 55 -5 171 -26 284 -51 12 -3 75 -23 140 -46 683 -234 1183 -873
1251 -1597 65 -690 -255 -1357 -837 -1746 -114 -77 -345 -192 -364 -183 -1 1
-9 -3 -17 -10 -27 -21 -284 -89 -379 -100 -25 -2 -72 -8 -105 -13 -57 -7 -326
-4 -390 5 -102 14 -124 18 -160 27 -22 5 -48 12 -57 14 -10 2 -26 6 -36 8
-160 36 -389 138 -552 244 -94 62 -94 62 -191 145 -366 309 -596 739 -655
1222 -13 111 -6 478 11 505 2 3 6 23 9 44 42 261 196 602 377 829 47 61 188
207 245 256 279 240 646 403 997 443 59 7 107 14 108 18 0 3 1 92 2 199 l2
194 -90 -6 c-49 -4 -101 -9 -115 -12 -14 -3 -38 -7 -55 -10 -249 -38 -560
-152 -791 -291 -302 -181 -605 -484 -779 -775 -126 -213 -241 -493 -271 -662
-2 -17 -6 -33 -8 -36 -2 -3 -7 -24 -10 -46 -3 -22 -8 -51 -11 -65 -20 -107
-29 -228 -29 -385 2 -595 225 -1141 644 -1579 285 -297 653 -512 1065 -621 88
-23 120 -30 200 -41 22 -3 45 -7 52 -9 74 -24 504 -25 629 -1 11 2 41 7 68 10
27 4 52 9 55 11 3 1 22 6 41 9 65 11 219 55 317 92 577 215 1044 656 1296
1224 99 222 163 475 184 730 12 141 6 385 -12 494 -2 11 -6 38 -9 58 -24 159
-87 373 -162 546 -234 540 -683 978 -1229 1199 -211 86 -419 138 -635 159 -36
3 -67 8 -70 9 -3 2 -12 0 -19 -5z"/>
<path d="M2030 3901 c-348 -60 -646 -210 -890 -451 -191 -188 -325 -403 -411
-660 -59 -178 -78 -309 -74 -530 2 -189 4 -206 30 -332 102 -481 448 -916 901
-1129 81 -38 264 -103 317 -113 15 -3 35 -7 45 -10 10 -3 62 -12 115 -19 88
-13 97 -12 98 2 3 47 1 382 -2 385 -2 2 -22 6 -44 9 -272 38 -510 159 -710
362 -191 193 -305 424 -349 705 -7 45 -8 275 -1 320 34 218 125 438 251 601
51 66 218 221 289 267 135 89 327 170 444 188 20 3 53 9 74 14 21 4 95 8 165
8 239 -1 450 -58 650 -178 172 -104 345 -288 449 -480 55 -100 119 -287 128
-370 1 -14 6 -50 10 -80 9 -64 9 -192 0 -264 -28 -230 -105 -424 -243 -611
-44 -59 -228 -245 -243 -245 -4 0 -14 -6 -21 -13 -39 -37 -186 -117 -292 -158
-65 -25 -186 -56 -251 -65 -27 -3 -52 -8 -54 -10 -2 -2 -3 -89 -3 -195 0 -135
4 -194 12 -199 6 -4 30 -4 53 0 23 5 76 14 117 20 101 16 295 81 407 135 97
47 269 159 342 222 371 321 581 770 582 1248 1 760 -522 1426 -1256 1600 -142
34 -160 36 -355 40 -136 3 -199 -1 -280 -14z"/>
</g>
</svg>
