<svg xmlns="http://www.w3.org/2000/svg" viewBox="0 0 515.84 141.16"><defs><style>.cls-1{fill:#a36b46;}</style></defs><title>logo</title><g id="Calque_2" data-name="Calque 2"><g id="Layer_1" data-name="Layer 1"><path d="M193.93,20.28c-20.61,0-35.58,15.35-35.58,36.49,0,21.38,15,36.9,35.58,36.9s35.57-15.52,35.57-36.9S214.87,20.28,193.93,20.28Zm0,58.74c-11.3,0-18.88-8.94-18.88-22.25,0-13.12,7.58-21.94,18.88-21.94s19,8.82,19,21.94C212.9,70.08,205.28,79,193.93,79Z"/><path d="M298.9,44.36c0-5.38-2-22.91-27.53-22.91H243.13v71h17V66.76h10.93l10.64,25.72h18.36l-13.45-28.6A20.8,20.8,0,0,0,298.9,44.36Zm-38.75-8.93h11.12c6.74,0,10.61,3.32,10.61,9.13s-4,9.22-10.71,9.22h-11Z"/><rect x="313.91" y="21.45" width="17.03" height="71.03"/><path d="M377.29,66.76h15.57v9.73a23.45,23.45,0,0,1-11,2.53c-12.63,0-20.17-8.4-20.17-22.44,0-12.95,8.11-21.65,20.17-21.65,5.83,0,11.13,1.81,16.66,5.72l.8.56,9-11.64-.85-.62a42.68,42.68,0,0,0-26-8.67c-21.78,0-37,14.92-37,36.3,0,22.18,14.82,37.09,36.89,37.09,10.13,0,19.37-2.83,26.72-8.18l.41-.3V53.78h-31.2Z"/><rect x="424.2" y="21.45" width="17.02" height="71.03"/><polygon points="499.56 21.45 499.56 64.31 473.2 21.45 457.42 21.45 457.42 92.48 473.64 92.48 473.64 49.82 500 92.48 515.68 92.48 515.68 21.45 499.56 21.45"/><path class="cls-1" d="M60.08,0V10a47.06,47.06,0,1,1-6.21,0V0a57,57,0,1,0,6.21,0Z"/><path class="cls-1" d="M57,16.08a41,41,0,0,0-3.11,81.8v-10a31,31,0,1,1,6.21,0v10A41,41,0,0,0,57,16.08Z"/><path d="M165.83,124.67h9.5v2.44H168.6v3.46h5V133h-5v3.82h7.24v2.49h-10Z"/><path d="M179.42,124.67h2.79l7.1,10.42V124.67H192v14.67h-2.73l-7.17-10.56v10.56h-2.7Z"/><path d="M206.7,138.92a7.86,7.86,0,0,1-1.65.59,7.16,7.16,0,0,1-1.8.22,7.43,7.43,0,0,1-3-.6,7.84,7.84,0,0,1-2.42-1.66,7.94,7.94,0,0,1-1.63-2.46,8,8,0,0,1,0-6,7.93,7.93,0,0,1,1.62-2.45,7.43,7.43,0,0,1,2.42-1.65,7.51,7.51,0,0,1,3-.6,7.43,7.43,0,0,1,3,.6,7.81,7.81,0,0,1,4,10.26,7.91,7.91,0,0,1-1.77,2.53l1.65,2.11-1.65,1.38Zm-3.34-4.29,1.65-1.38,1.74,2.24a5.14,5.14,0,0,0,.91-1.62,6.1,6.1,0,0,0,0-3.93,5,5,0,0,0-1-1.64,4.44,4.44,0,0,0-1.49-1.11,4.91,4.91,0,0,0-3.93,0,4.4,4.4,0,0,0-1.48,1.11,5,5,0,0,0-1,1.64,5.89,5.89,0,0,0-.33,2,6,6,0,0,0,.33,2,5.14,5.14,0,0,0,1,1.66,4.59,4.59,0,0,0,1.48,1.13,4.48,4.48,0,0,0,2,.41,4.8,4.8,0,0,0,1.78-.32Z"/><path d="M214.37,124.67h2.77v8.77a6.34,6.34,0,0,0,.17,1.51,3,3,0,0,0,.54,1.15,2.45,2.45,0,0,0,1,.72,4.72,4.72,0,0,0,3,0,2.45,2.45,0,0,0,1-.72,3,3,0,0,0,.54-1.15,6.36,6.36,0,0,0,.16-1.51v-8.77h2.77v9.26a6.5,6.5,0,0,1-.39,2.28,5.12,5.12,0,0,1-1.17,1.84,5.48,5.48,0,0,1-1.88,1.23,7.37,7.37,0,0,1-5.07,0,5.39,5.39,0,0,1-1.88-1.23,5,5,0,0,1-1.17-1.84,6.5,6.5,0,0,1-.4-2.28Z"/><path d="M230.4,124.67h9.5v2.44h-6.73v3.46h5V133h-5v3.82h7.23v2.49h-10Zm3.52-4.53h2.44l2.42,3.43h-2.29l-1.36-1.8-1.34,1.8H231.5Z"/><path d="M247.92,127.11h-5v-2.44h12.71v2.44h-5v12.23h-2.77Z"/><path d="M258.8,124.67h9.5v2.44h-6.73v3.46h4.95V133h-4.95v3.82h7.24v2.49h-10Z"/><path d="M273.47,135.2a7.29,7.29,0,0,0,.62.65,6,6,0,0,0,.82.64,4.31,4.31,0,0,0,1,.49,3.78,3.78,0,0,0,1.26.2,2.75,2.75,0,0,0,1.93-.59,2,2,0,0,0,.45-2.25,1.59,1.59,0,0,0-.6-.64,4.86,4.86,0,0,0-1.09-.5c-.44-.14-1-.28-1.66-.42a5.66,5.66,0,0,1-1.74-.61,4.48,4.48,0,0,1-1.22-1,3.81,3.81,0,0,1-.73-1.26,4.37,4.37,0,0,1-.24-1.42,4.06,4.06,0,0,1,.31-1.59,3.67,3.67,0,0,1,.94-1.35,4.89,4.89,0,0,1,1.6-.93,6.33,6.33,0,0,1,2.25-.35,6.56,6.56,0,0,1,2,.26,6.11,6.11,0,0,1,1.4.62,4.12,4.12,0,0,1,.87.69l.43.49-1.82,1.72-.35-.32a4,4,0,0,0-.61-.45,4.6,4.6,0,0,0-.86-.4,3.71,3.71,0,0,0-1.15-.17,3,3,0,0,0-1,.15,2.09,2.09,0,0,0-.69.4,1.62,1.62,0,0,0-.41.54,1.47,1.47,0,0,0-.13.56,1.75,1.75,0,0,0,.14.7,1.53,1.53,0,0,0,.49.57,3.35,3.35,0,0,0,.93.47,11.41,11.41,0,0,0,1.5.39,7.94,7.94,0,0,1,1.65.53,5.07,5.07,0,0,1,1.39.91,4.06,4.06,0,0,1,1,1.36,4.72,4.72,0,0,1,.36,1.93,4.1,4.1,0,0,1-.39,1.78,4.61,4.61,0,0,1-1.1,1.43,5.16,5.16,0,0,1-1.67.95,6.27,6.27,0,0,1-2.11.34,7.16,7.16,0,0,1-2-.26,7.86,7.86,0,0,1-1.61-.67,6.94,6.94,0,0,1-1.23-.89,9.1,9.1,0,0,1-.87-.93Z"/><path d="M295.54,127.11h-5v-2.44h12.71v2.44h-5v12.23h-2.77Z"/><path d="M306.42,124.67h9.5v2.44h-6.73v3.46h4.95V133h-4.95v3.82h7.23v2.49h-10Z"/><path d="M332,136.65a5.25,5.25,0,0,1-.91,1,8.14,8.14,0,0,1-1.37,1,8.49,8.49,0,0,1-1.74.73,6.91,6.91,0,0,1-2,.29,7.72,7.72,0,0,1-3-.57,6.91,6.91,0,0,1-2.35-1.6,7.11,7.11,0,0,1-1.54-2.41,8.57,8.57,0,0,1,0-6,7.29,7.29,0,0,1,1.55-2.46,7.21,7.21,0,0,1,2.38-1.67,7.44,7.44,0,0,1,3.06-.62,8.27,8.27,0,0,1,2,.23,7.68,7.68,0,0,1,1.63.63,6,6,0,0,1,1.31.93,7.85,7.85,0,0,1,1,1.16L330.08,129a6,6,0,0,0-1.64-1.63,4.16,4.16,0,0,0-2.34-.62,4.36,4.36,0,0,0-1.94.43,4.69,4.69,0,0,0-1.46,1.14,5.07,5.07,0,0,0-.92,1.68,6,6,0,0,0-.32,2,5.87,5.87,0,0,0,.32,2,4.67,4.67,0,0,0,.91,1.6,4.46,4.46,0,0,0,1.42,1.08,4.3,4.3,0,0,0,1.86.39,5.14,5.14,0,0,0,1.61-.22,4,4,0,0,0,1.14-.55,4.2,4.2,0,0,0,.79-.69c.22-.24.41-.45.59-.63Z"/><path d="M335.18,124.67H338v5.9h7.27v-5.9H348v14.67h-2.77V133H338v6.31h-2.77Z"/><path d="M352.17,124.67H355l7.1,10.42V124.67h2.71v14.67H362l-7.16-10.56v10.56h-2.71Z"/><path d="M369,124.67h2.77v14.67H369Z"/><path d="M388.8,136.65a5.32,5.32,0,0,1-.92,1,7.4,7.4,0,0,1-1.37,1,8.49,8.49,0,0,1-1.74.73,6.86,6.86,0,0,1-2,.29,7.72,7.72,0,0,1-3-.57,7,7,0,0,1-2.35-1.6,7.26,7.26,0,0,1-1.54-2.41,8.57,8.57,0,0,1,0-6,7.45,7.45,0,0,1,1.55-2.46,7.31,7.31,0,0,1,2.38-1.67,7.5,7.5,0,0,1,3.06-.62,8.15,8.15,0,0,1,2,.23,7.77,7.77,0,0,1,1.64.63,6.2,6.2,0,0,1,1.31.93,8.48,8.48,0,0,1,1,1.16l-2,1.74a6,6,0,0,0-1.64-1.63,4.16,4.16,0,0,0-2.34-.62,4.31,4.31,0,0,0-1.93.43,4.73,4.73,0,0,0-1.47,1.14,5.07,5.07,0,0,0-.92,1.68,6.32,6.32,0,0,0-.32,2,6.13,6.13,0,0,0,.32,2,4.84,4.84,0,0,0,.91,1.6,4.58,4.58,0,0,0,1.42,1.08,4.3,4.3,0,0,0,1.86.39,5.05,5.05,0,0,0,1.61-.22,4.24,4.24,0,0,0,1.15-.55,4.54,4.54,0,0,0,.79-.69c.21-.24.41-.45.58-.63Z"/><path d="M398.6,139.73a7.46,7.46,0,0,1-3-.6,7.84,7.84,0,0,1-2.42-1.66,7.74,7.74,0,0,1-1.62-2.46,7.88,7.88,0,0,1,0-6,7.73,7.73,0,0,1,1.61-2.45,7.43,7.43,0,0,1,2.42-1.65,7.51,7.51,0,0,1,3-.6,7.43,7.43,0,0,1,3,.6,7.54,7.54,0,0,1,2.42,1.65,7.89,7.89,0,0,1,1.63,8.48,7.94,7.94,0,0,1-1.63,2.46,7.73,7.73,0,0,1-2.42,1.66A7.43,7.43,0,0,1,398.6,139.73Zm0-2.62a4.5,4.5,0,0,0,2-.41,4.63,4.63,0,0,0,1.49-1.13,5.14,5.14,0,0,0,.95-1.66,6,6,0,0,0,.33-2,5.89,5.89,0,0,0-.33-2,5,5,0,0,0-.95-1.64,4.44,4.44,0,0,0-1.49-1.11,4.91,4.91,0,0,0-3.93,0,4.4,4.4,0,0,0-1.48,1.11,4.85,4.85,0,0,0-.94,1.64,5.9,5.9,0,0,0-.34,2,6,6,0,0,0,.34,2,4.94,4.94,0,0,0,.94,1.66,4.59,4.59,0,0,0,1.48,1.13A4.48,4.48,0,0,0,398.6,137.11Z"/><path d="M409.79,132h6.71v2.47h-6.71Z"/><path d="M420.63,124.67h2.77v12.2h7.23v2.47h-10Z"/><path d="M433.89,124.67h9.49v2.44h-6.72v3.46h4.94V133h-4.94v3.82h7.23v2.49h-10Zm5.12-4.53h3.21l-2.51,3.43H437.4Z"/><path d="M454.31,131.58h5.25v6.06a7.57,7.57,0,0,1-2.26,1.43,9.07,9.07,0,0,1-3.61.62,8.4,8.4,0,0,1-3.22-.59,7.26,7.26,0,0,1-2.4-1.62,6.91,6.91,0,0,1-1.52-2.41,8.35,8.35,0,0,1-.53-3,8.13,8.13,0,0,1,.55-3,7.45,7.45,0,0,1,1.55-2.46,7.25,7.25,0,0,1,2.39-1.67,7.42,7.42,0,0,1,3.05-.62,8.15,8.15,0,0,1,2,.23,7.77,7.77,0,0,1,1.64.63,6.2,6.2,0,0,1,1.31.93,8.48,8.48,0,0,1,1,1.16l-2,1.74a5.91,5.91,0,0,0-1.64-1.63,4.16,4.16,0,0,0-2.34-.62,4.31,4.31,0,0,0-1.93.43,4.85,4.85,0,0,0-1.47,1.14,5.07,5.07,0,0,0-.92,1.68,6.32,6.32,0,0,0-.32,2,5.54,5.54,0,0,0,.39,2.13,4.86,4.86,0,0,0,1.05,1.63,4.69,4.69,0,0,0,1.56,1,5,5,0,0,0,1.88.36,4.58,4.58,0,0,0,3.13-1v-2.28h-2.62Z"/><path d="M467.72,124.67h2.86l5.56,14.67h-3.08l-1.27-3.72h-5.46l-1.27,3.72h-2.9Zm3.28,8.67-1.94-5.7-2,5.7Z"/><path d="M478.89,124.67h2.77v12.2h7.23v2.47h-10Z"/><path d="M492.14,124.67h9.5v2.44h-6.73v3.46h4.95V133h-4.95v3.82h7.24v2.49h-10Z"/><path d="M506.81,135.2a7.29,7.29,0,0,0,.62.65,6,6,0,0,0,.82.64,4.31,4.31,0,0,0,1,.49,3.78,3.78,0,0,0,1.26.2,2.75,2.75,0,0,0,1.93-.59,2,2,0,0,0,.45-2.25,1.59,1.59,0,0,0-.6-.64,4.86,4.86,0,0,0-1.09-.5c-.44-.14-1-.28-1.66-.42a5.66,5.66,0,0,1-1.74-.61,4.48,4.48,0,0,1-1.22-1,3.81,3.81,0,0,1-.73-1.26,4.37,4.37,0,0,1-.24-1.42,4.06,4.06,0,0,1,.31-1.59,3.67,3.67,0,0,1,.94-1.35,4.89,4.89,0,0,1,1.6-.93,6.37,6.37,0,0,1,2.25-.35,6.56,6.56,0,0,1,2,.26,6.11,6.11,0,0,1,1.4.62,4.12,4.12,0,0,1,.87.69l.43.49-1.82,1.72-.35-.32a4,4,0,0,0-.61-.45,4.6,4.6,0,0,0-.86-.4,3.71,3.71,0,0,0-1.15-.17,3,3,0,0,0-1,.15,2.2,2.2,0,0,0-.69.4,1.62,1.62,0,0,0-.41.54,1.47,1.47,0,0,0-.13.56,1.75,1.75,0,0,0,.14.7,1.53,1.53,0,0,0,.49.57,3.35,3.35,0,0,0,.93.47,11.41,11.41,0,0,0,1.5.39,7.94,7.94,0,0,1,1.65.53,5.07,5.07,0,0,1,1.39.91,4.21,4.21,0,0,1,1,1.36,4.72,4.72,0,0,1,.36,1.93,4.1,4.1,0,0,1-.39,1.78,4.61,4.61,0,0,1-1.1,1.43,5.16,5.16,0,0,1-1.67.95,6.27,6.27,0,0,1-2.11.34,7.16,7.16,0,0,1-2-.26,7.86,7.86,0,0,1-1.61-.67,6.94,6.94,0,0,1-1.23-.89,9.1,9.1,0,0,1-.87-.93Z"/></g></g></svg>